<svg width="122" height="122" viewBox="0 0 122 122" fill="none" xmlns="http://www.w3.org/2000/svg">
<rect width="122" height="122" rx="32.46" fill="#13C1AC"/>
<path d="M68.9535 23.238C59.9569 23.238 53.4702 27.9879 49.7729 33.0647C49.5721 33.3414 49.1923 33.4111 48.9042 33.2281C47.0054 32.0297 43.7926 30.4239 39.3292 30.4239C29.8218 30.4239 21.5781 38.3571 21.5781 48.1445C21.5781 55.6114 25.7491 60.577 28.1128 62.477C28.3682 62.6818 28.4358 63.0435 28.2634 63.3202C26.7072 65.8542 25.1532 70.3535 25.1532 73.6937C25.1532 83.9844 33.4383 92.3273 43.7489 92.3273C46.9268 92.3273 49.3211 91.7368 50.3098 91.4448C50.5979 91.3599 50.9035 91.4797 51.0563 91.7368C52.8285 94.7414 58.2435 100.422 67.2882 100.422C76.5533 100.422 85.6439 93.177 86.4667 83.2829C86.4907 82.9952 86.7068 82.7578 86.9905 82.7033C95.3215 81.141 101.252 73.393 101.252 64.8999C101.252 56.4438 96.1509 51.574 93.1302 49.5782C92.9337 49.4496 92.829 49.2252 92.8486 48.9899C93.7806 37.7165 85.1069 23.238 68.9535 23.238ZM33.2637 72.5651C33.2637 70.5039 33.7199 68.4057 34.8047 66.4861C34.8701 66.3706 35.1168 66.0067 35.5271 66.1026C37.1488 66.5558 38.7573 66.7868 40.6955 66.7868C42.6664 66.7868 44.1331 65.2245 44.1331 63.305C44.1331 61.5314 42.7842 59.8558 40.475 59.8558C36.064 59.8558 30.2649 56.0276 30.2649 48.9616C30.2649 42.8891 35.1277 38.1871 40.8723 38.1871C43.1007 38.1871 44.9996 38.6142 47.383 40.0915C48.2385 40.6209 49.1334 41.5491 50.8511 41.5491C52.2676 41.5491 53.1865 40.7015 53.6033 39.8714C54.6903 37.7013 59.0511 31.7072 68.6 31.7072C77.0095 31.7072 84.6639 39.5969 84.6639 48.1184C84.6639 52.9772 83.0247 55.7051 81.1804 58.4418C80.5431 59.3874 80.4449 60.0912 80.4449 60.784C80.4449 62.9716 82.2084 64.4685 84.1357 64.4685C87.0604 64.4685 88.9941 60.893 90.2666 58.6074C90.4216 58.3285 90.8144 58.3045 91.0021 58.5638C91.7966 59.6685 93.0276 62.2417 93.0276 65.6298C93.0276 70.4254 89.1687 75.9597 82.2303 76.5742C80.0128 76.7703 78.7883 77.9556 78.6967 80.1911C78.4413 86.4487 73.417 91.179 67.1573 91.179C59.3938 91.179 55.1333 83.553 55.9431 77.2867C56.2727 74.7374 54.2472 73.38 52.4597 73.38C50.8424 73.38 49.6834 74.16 49.0221 75.4412C47.9526 77.5133 47.8959 81.7097 48.101 83.3657C48.1752 83.9605 47.885 84.2895 45.5583 84.2895C39.375 84.2808 33.2637 79.6703 33.2637 72.5651Z" fill="white"/>
</svg>
